<svg width="24" height="25" viewBox="0 0 24 25" fill="none" xmlns="http://www.w3.org/2000/svg">
<g id="basil:map-location-outline">
<path id="Vector" fill-rule="evenodd" clip-rule="evenodd" d="M8.25 9.5C8.25 8.50544 8.64509 7.55161 9.34835 6.84835C10.0516 6.14509 11.0054 5.75 12 5.75C12.9946 5.75 13.9484 6.14509 14.6517 6.84835C15.3549 7.55161 15.75 8.50544 15.75 9.5C15.75 10.4946 15.3549 11.4484 14.6517 12.1517C13.9484 12.8549 12.9946 13.25 12 13.25C11.0054 13.25 10.0516 12.8549 9.34835 12.1517C8.64509 11.4484 8.25 10.4946 8.25 9.5ZM12 7.25C11.4033 7.25 10.831 7.48705 10.409 7.90901C9.98705 8.33097 9.75 8.90326 9.75 9.5C9.75 10.0967 9.98705 10.669 10.409 11.091C10.831 11.5129 11.4033 11.75 12 11.75C12.5967 11.75 13.169 11.5129 13.591 11.091C14.0129 10.669 14.25 10.0967 14.25 9.5C14.25 8.90326 14.0129 8.33097 13.591 7.90901C13.169 7.48705 12.5967 7.25 12 7.25Z" fill="#AAAAAA"/>
<path id="Vector_2" fill-rule="evenodd" clip-rule="evenodd" d="M5.45586 8.627C5.58789 7.0252 6.3175 5.53163 7.4998 4.44288C8.6821 3.35413 10.2306 2.74984 11.8379 2.75H12.1619C13.7691 2.74984 15.3176 3.35413 16.4999 4.44288C17.6822 5.53163 18.4118 7.0252 18.5439 8.627C18.6906 10.4073 18.1406 12.1751 17.0099 13.558L13.4149 17.954C13.2434 18.1636 13.0275 18.3325 12.7828 18.4485C12.5381 18.5645 12.2707 18.6247 11.9999 18.6247C11.729 18.6247 11.4616 18.5645 11.2169 18.4485C10.9722 18.3325 10.7563 18.1636 10.5849 17.954L6.98986 13.558C5.85932 12.1754 5.30939 10.408 5.45586 8.628V8.627ZM11.8379 4.25C10.6072 4.24985 9.42142 4.71254 8.51608 5.54619C7.61074 6.37983 7.05202 7.52347 6.95086 8.75C6.83577 10.1432 7.26599 11.5267 8.15086 12.609L11.7459 17.005C11.8769 17.165 12.1229 17.165 12.2539 17.005L15.8489 12.609C16.7337 11.5267 17.1639 10.1432 17.0489 8.75C16.9477 7.52347 16.389 6.37983 15.4836 5.54619C14.5783 4.71254 13.3926 4.24985 12.1619 4.25H11.8379Z" fill="#AAAAAA"/>
<path id="Vector_3" d="M7.66995 16.835C7.71983 16.7465 7.7512 16.6488 7.76216 16.5477C7.77312 16.4467 7.76343 16.3445 7.73369 16.2474C7.70396 16.1502 7.65478 16.0601 7.58916 15.9825C7.52354 15.9049 7.44283 15.8415 7.35194 15.796C7.26106 15.7506 7.16189 15.7241 7.06045 15.7181C6.95901 15.7122 6.85742 15.7269 6.76184 15.7614C6.66627 15.7959 6.5787 15.8495 6.50446 15.9189C6.43022 15.9883 6.37085 16.072 6.32995 16.165L4.32995 20.165C4.2729 20.2793 4.24598 20.4062 4.25174 20.5338C4.25749 20.6614 4.29574 20.7854 4.36284 20.8941C4.42994 21.0027 4.52369 21.0925 4.63518 21.1548C4.74668 21.2171 4.87224 21.2498 4.99995 21.25H19C19.1277 21.2498 19.2532 21.2171 19.3647 21.1548C19.4762 21.0925 19.57 21.0027 19.6371 20.8941C19.7042 20.7854 19.7424 20.6614 19.7482 20.5338C19.7539 20.4062 19.727 20.2793 19.67 20.165L17.67 16.165C17.6291 16.072 17.5697 15.9883 17.4954 15.9189C17.4212 15.8495 17.3336 15.7959 17.2381 15.7614C17.1425 15.7269 17.0409 15.7122 16.9395 15.7181C16.838 15.7241 16.7388 15.7506 16.648 15.796C16.5571 15.8415 16.4764 15.9049 16.4107 15.9825C16.3451 16.0601 16.2959 16.1502 16.2662 16.2474C16.2365 16.3445 16.2268 16.4467 16.2377 16.5477C16.2487 16.6488 16.2801 16.7465 16.33 16.835L17.787 19.75H6.21295L7.66995 16.835Z" fill="#AAAAAA"/>
</g>
</svg>
