<svg width="30" height="30" viewBox="0 0 30 30" fill="none" xmlns="http://www.w3.org/2000/svg">
<path id="Pepsa Logo" fill-rule="evenodd" clip-rule="evenodd" d="M13.3566 0.131912C8.31633 0.916496 4.57884 4.31469 3.70588 8.90677C3.48255 10.0812 3.26999 11.8585 3.13213 13.7033C3.00822 15.3616 2.94188 30.2911 3.05972 29.9957C3.09398 29.9098 3.22069 29.522 3.34131 29.134C4.53342 25.298 8.31444 22.0897 12.7501 21.1504C13.1932 21.0566 14.2057 20.9174 15.0001 20.8411C16.8278 20.6656 17.6748 20.5143 18.9844 20.1295C20.2714 19.7513 21.1826 19.3659 22.2217 18.76C23.1631 18.2111 24.5676 17.0044 25.1309 16.2604C25.9522 15.1758 26.5946 13.7889 26.8668 12.513C27.0267 11.7635 27.028 9.27578 26.8689 8.54508C25.775 3.52111 20.9103 -0.0409112 15.1993 0.000354848C14.6241 0.00449909 13.7949 0.0636645 13.3566 0.131912ZM16.4429 6.4763C18.0689 6.85123 19.4764 8.16583 19.7799 9.59313C19.9973 10.6153 19.8443 11.7123 19.3696 12.536C19.0175 13.1469 18.028 13.9481 17.1376 14.3433C16.0271 14.8361 15.1779 15.0917 12.9785 15.5953C11.9264 15.8362 10.8415 16.0939 10.5676 16.1679C10.2936 16.242 10.0522 16.303 10.031 16.3035C9.91763 16.3064 10.3728 11.9643 10.6317 10.5731C10.9364 8.9356 11.3022 8.20401 12.1792 7.4778C13.3923 6.47331 14.8971 6.1199 16.4429 6.4763ZM2.4796 8.00209C1.50344 9.26088 0.659965 11.0982 0.24699 12.8657C-0.082413 14.2751 -0.0823136 16.6011 0.24719 17.9798C0.512446 19.0896 0.923527 20.1825 1.42944 21.1228L1.80207 21.8155L1.82966 20.5691C1.85367 19.4848 1.82578 19.2155 1.6153 18.497C0.919145 16.1199 1.0318 13.6953 1.94859 11.3226C2.11733 10.8861 2.34543 10.0132 2.4556 9.38274C2.56576 8.75229 2.69794 8.09979 2.74924 7.93279C2.80054 7.76578 2.83251 7.62065 2.82036 7.61024C2.80811 7.59992 2.65481 7.77619 2.4796 8.00209ZM28.1317 10.156C28.1575 11.2018 28.216 11.6745 28.3958 12.2925C29.0518 14.5469 28.9762 16.9291 28.1777 19.1668C27.0441 22.3434 24.3022 25.1049 20.8748 26.5219C19.0753 27.2659 17.6163 27.5776 15.5978 27.6498C12.7232 27.7524 10.0806 27.1485 7.75912 25.8583L6.91604 25.3897L6.64999 25.6656C6.20205 26.1304 6.17964 26.199 6.42617 26.3512C10.8858 29.1058 16.9234 29.4899 21.7277 27.3246C25.9521 25.4207 28.7839 22.1094 29.757 17.9357C30.0792 16.5542 30.0813 14.2099 29.7616 12.8467C29.488 11.6796 28.9987 10.393 28.4869 9.49463L28.0986 8.81295L28.1317 10.156Z" fill="white"/>
</svg>
