<svg width="25" height="25" viewBox="0 0 25 25" fill="none" xmlns="http://www.w3.org/2000/svg">
<path id="Pepsa Logo" fill-rule="evenodd" clip-rule="evenodd" d="M11.1657 0.60553C7.13353 1.2332 4.14354 3.95175 3.44517 7.62542C3.26651 8.56494 3.09646 9.98682 2.98618 11.4627C2.88705 12.7892 2.83398 24.7329 2.92824 24.4965C2.95566 24.4278 3.05702 24.1176 3.15352 23.8072C4.1072 20.7384 7.13202 18.1718 10.6805 17.4204C11.0351 17.3453 11.8451 17.2339 12.4806 17.1729C13.9427 17.0325 14.6203 16.9114 15.668 16.6036C16.6976 16.301 17.4265 15.9927 18.2578 15.508C19.0109 15.0689 20.1345 14.1036 20.5852 13.5083C21.2422 12.6406 21.7561 11.5311 21.9739 10.5104C22.1018 9.91078 22.1029 7.92063 21.9756 7.33606C21.1005 3.31689 17.2087 0.467271 12.6399 0.500284C12.1798 0.503599 11.5164 0.550932 11.1657 0.60553ZM13.6348 5.68104C14.9356 5.98098 16.0616 7.03267 16.3044 8.1745C16.4783 8.99221 16.3559 9.86987 15.9762 10.5288C15.6945 11.0175 14.9029 11.6585 14.1906 11.9746C13.3021 12.3689 12.6228 12.5734 10.8633 12.9762C10.0216 13.169 9.15366 13.3752 8.93452 13.4343C8.71539 13.4936 8.52223 13.5424 8.50525 13.5428C8.41457 13.5451 8.77874 10.0715 8.98584 8.95849C9.2296 7.64848 9.52221 7.06321 10.2238 6.48224C11.1943 5.67865 12.3982 5.39592 13.6348 5.68104ZM2.46415 6.90167C1.68322 7.90871 1.00844 9.37855 0.678061 10.7925C0.414538 11.92 0.414618 13.7809 0.67822 14.8839C0.890425 15.7717 1.21929 16.646 1.62402 17.3983L1.92212 17.9524L1.9442 16.9553C1.9634 16.0879 1.94109 15.8724 1.77271 15.2976C1.21578 13.3959 1.30591 11.4562 2.03934 9.55808C2.17433 9.20891 2.35681 8.51056 2.44495 8.00619C2.53308 7.50183 2.63882 6.97983 2.67986 6.84623C2.7209 6.71263 2.74648 6.59652 2.73676 6.58819C2.72696 6.57994 2.60432 6.72095 2.46415 6.90167ZM22.9859 8.62476C23.0065 9.46144 23.0533 9.83961 23.1971 10.334C23.7219 12.1375 23.6614 14.0433 23.0226 15.8334C22.1158 18.3747 19.9222 20.584 17.1803 21.7175C15.7407 22.3127 14.5735 22.5621 12.9587 22.6198C10.659 22.7019 8.54494 22.2188 6.68777 21.1866L6.0133 20.8118L5.80046 21.0325C5.44211 21.4043 5.42418 21.4592 5.6214 21.581C9.18912 23.7846 14.0192 24.0919 17.8627 22.3597C21.2422 20.8366 23.5076 18.1876 24.2861 14.8486C24.5438 13.7434 24.5455 11.8679 24.2898 10.7774C24.0709 9.8437 23.6794 8.81437 23.27 8.09571L22.9593 7.55036L22.9859 8.62476Z" fill="#9D0208"/>
</svg>
